<svg width="799.9999999999999" height="600" xmlns="http://www.w3.org/2000/svg">
 <g>
  <title>Layer 1</title>
  <g stroke="null">
   <path stroke="null" d="m400.50001,1.00001a399.43458,299.50001 0 1 0 0,599.00001a399.43458,299.50001 0 1 0 0,-599.00001z" fill="#1e88e5"/>
   <path stroke="null" d="m474.85475,286.10904c0,-23.40593 66.28617,-30.1297 66.28617,-85.1179c0,-32.98993 -3.91446,-52.87673 -37.36711,-64.58718c0,-8.17635 59.0564,-2.80033 59.0564,-18.10478c-10.2455,0 -129.33692,0 -129.33692,0s-130.95463,2.50083 -130.95463,88.57713c0,86.1362 114.47795,76.1928 114.47795,76.1928s0,12.95338 0,21.75868c0,8.89515 15.37823,5.85523 17.25557,23.70543c-7.74903,0 -159.05485,-3.1148 -159.05485,74.84505s133.39118,74.26103 133.39118,74.26103s154.22169,5.46588 154.22169,-91.4074c0,-57.96823 -87.97547,-76.68698 -87.97547,-100.12285zm-111.7618,-74.17118c-12.06292,-34.6222 3.89449,-68.03143 35.66951,-74.7552c31.81496,-6.78368 67.38461,15.85853 79.50745,50.42083c12.0829,34.57728 -3.83457,68.03143 -35.64954,74.7552c-31.79499,6.75373 -67.40459,-15.90345 -79.52743,-50.42083zm66.24623,240.81298c-53.34449,2.8153 -98.78017,-19.39263 -101.39647,-49.6571c-2.65624,-30.1896 38.48552,-56.97988 91.86995,-59.8401c53.4044,-2.8153 98.80014,19.42258 101.45638,49.62715c2.6163,30.3094 -38.52547,57.06973 -91.92987,59.87005z" fill="#1565c0"/>
   <path stroke="null" d="m440.34361,286.10904c0,-23.40593 66.2662,-30.1297 66.2662,-85.1179c0,-32.98993 -3.89449,-52.87673 -37.34713,-64.58718c0,-8.17635 59.03643,-2.80033 59.03643,-18.10478c-10.22553,0 -129.33692,0 -129.33692,0s-130.93466,2.50083 -130.93466,88.57713c0,86.1362 114.45798,76.1928 114.45798,76.1928s0,12.95338 0,21.75868c0,8.89515 15.3982,5.85523 17.27555,23.70543c-7.74903,0 -159.05485,-3.1148 -159.05485,74.84505s133.39118,74.26103 133.39118,74.26103s154.20172,5.46588 154.20172,-91.4074c0,-57.96823 -87.9555,-76.68698 -87.9555,-100.12285zm-111.7618,-74.17118c-12.06292,-34.6222 3.87452,-68.03143 35.64954,-74.7552c31.81496,-6.78368 67.38461,15.85853 79.52743,50.42083c12.06292,34.57728 -3.85454,68.03143 -35.66951,74.7552c-31.77502,6.75373 -67.36464,-15.90345 -79.50745,-50.42083zm66.2662,240.81298c-53.34449,2.8153 -98.78017,-19.39263 -101.39647,-49.6571c-2.65624,-30.1896 38.48552,-56.97988 91.84998,-59.8401c53.42438,-2.8153 98.82012,19.42258 101.45638,49.62715c2.6163,30.3094 -38.50549,57.06973 -91.9099,59.87005z" fill="#e8eaf6"/>
  </g>
 </g>

</svg>