<svg width="799.9999999999999" height="600" xmlns="http://www.w3.org/2000/svg">
 <g>
  <title>Layer 1</title>
  <g stroke="null">
   <g stroke="null">
    <title stroke="null">Layer 1</title>
    <g stroke="null">
     <path stroke="null" fill="#4caf50" d="m621.44438,599.00013l-443.88887,0c-98.05505,0 -177.55555,-59.6005 -177.55555,-133.11111l0,-332.77777c0,-73.51061 79.5005,-133.11111 177.55555,-133.11111l443.88887,0c98.05505,0 177.55555,59.6005 177.55555,133.11111l0,332.77777c0,73.51061 -79.5005,133.11111 -177.55555,133.11111z"/>
     <path stroke="null" fill="#fff" d="m473.74036,190.69844c14.53736,-0.88186 85.80372,-5.10814 114.14602,-3.74375c2.53017,-3.06156 14.89247,-6.50581 22.97125,-1.04825c5.54861,3.76039 11.31917,6.18967 16.46828,7.82028c5.74836,1.83028 6.90247,9.2845 -3.39575,9.95006c-9.36606,0.599 -43.63428,9.23458 -57.06191,20.16633c4.3945,0.34942 12.02939,5.391 3.35136,12.12975c10.29822,0.68219 40.26072,0.16639 49.538,-0.43261c2.88528,-3.76039 13.31667,-9.99997 24.769,-1.53078c3.46233,2.91181 13.71617,8.71878 17.71117,9.91678c4.794,1.44758 5.28228,8.05322 -1.73117,8.11978c-11.49672,0.09983 -82.62991,-0.43261 -97.32264,2.56239c-0.11097,12.56236 -5.65958,44.80853 -22.70492,56.72197c-8.07878,6.80531 -18.17725,5.59067 -24.45828,1.06489c-8.67803,-6.25622 -19.08722,-9.53408 -29.42983,-16.07317c-8.65583,-5.49083 -1.55361,-15.00828 8.98875,-11.91344c6.7915,1.98003 26.32261,4.89183 34.91186,4.62561c2.86308,-8.20297 2.86308,-22.87847 1.46483,-32.49575c-15.98,-0.83194 -67.13819,11.381 -79.41172,11.73042s-23.61489,-10.16636 -27.89842,-13.92675s-5.43764,-9.75039 6.70272,-10.76536c12.14036,-1.03161 83.20697,-5.04158 97.10069,-5.29117c0.22194,-6.48917 -1.06533,-13.12808 -2.19725,-16.67217c-1.84214,-5.72378 7.05783,-15.55736 22.32761,-6.40597c3.35136,-4.44258 14.00469,-11.11478 20.13036,-13.59397c-14.58175,-0.93178 -47.85122,3.69383 -59.45891,6.63892c-5.94811,1.68053 -15.64708,2.42928 -20.97375,-0.48253s-13.36106,-6.75539 -18.22164,-8.46919c-4.81619,-1.68053 -6.03689,-8.00331 3.68428,-8.60231z"/>
     <path stroke="null" fill="#fff" d="m472.96355,164.74178c0,0 94.48175,-5.00831 150.1898,-1.21464c-2.30822,4.82528 -3.35136,15.69047 7.30197,15.69047c11.82964,0 16.29072,-8.25289 29.18569,-12.579c12.3845,-4.14308 27.76525,-1.96339 28.3645,-9.31778c0.53267,-6.38933 -8.70022,-6.32278 -16.88997,-10.71544c-9.56581,-5.14142 -8.85558,-11.31444 -18.13286,-12.21294c-7.52392,-0.73211 -12.69522,4.47586 -13.87153,8.26953c-42.76869,-0.86522 -120.56022,1.89683 -167.10197,7.23792c0.46608,-9.48417 -4.70522,-22.07981 -16.22414,-22.07981c-11.40794,0 -9.29947,13.24456 -15.73586,24.82522c-6.99125,12.579 -17.40044,11.83025 -18.33261,21.38097c-0.68803,7.08817 11.05283,9.00164 25.63458,9.00164c11.27478,0 21.37325,-5.52411 25.61239,-18.28614z"/>
     <path stroke="null" fill="#fff" d="m518.46216,96.32267c4.52767,-6.67219 20.86278,-0.81531 34.57894,4.4925s23.72586,7.33775 24.01439,17.13806c0.28853,9.78367 -16.71242,16.25619 -25.05753,14.42592c-11.14161,-2.42928 -8.43389,-11.16469 -17.51142,-19.93339c-6.17006,-5.92344 -20.01939,-10.19964 -16.02439,-16.12308z"/>
     <path stroke="null" fill="#fff" d="m399.49995,141.03136c0,0 -88.77777,-41.19789 -181.21763,5.99l-62.92125,-47.18789l0,149.75l199.74999,0l-71.26636,-53.42747c19.22039,-25.47414 54.84247,-45.35761 115.65525,-55.12464z"/>
     <path stroke="null" fill="#fff" d="m399.49995,457.96891c0,0 88.77777,41.19789 181.21763,-5.99l62.92125,47.18789l0,-149.75l-199.74999,0l71.26636,53.42747c-16.09097,21.44753 -54.84247,45.35761 -115.65525,55.12464z"/>
     <path stroke="null" fill="#fff" d="m355.11106,482.52791c-7.76806,-25.42422 -6.90247,-97.13783 -4.794,-128.06953c2.10847,-30.88178 -28.87497,-53.34428 -72.44266,-54.79186c-32.71461,-1.08153 -62.94344,3.49417 -88.689,8.83525l4.06158,27.10475c10.52017,-3.77703 31.20539,-8.45256 44.30011,-9.03492c39.50611,-1.73044 73.46361,6.60564 71.75464,32.12969c-0.26633,5.52411 -0.24414,11.26453 -0.33292,16.92175l-0.26633,-0.39933c-35.20039,-11.03158 -151.54366,-16.03989 -153.34141,59.98319c-0.66583,48.96825 50.22603,53.311 81.38702,52.79519c29.9403,-0.48253 59.32575,-9.78367 75.905,-21.48081c0.46608,6.17303 0.90997,9.63392 1.44264,15.94006l41.01533,0.06656zm-156.24888,-48.08639c0,-48.23614 85.53739,-46.22283 111.4383,-37.33767c0.31072,16.52242 1.10972,33.56064 2.30822,51.2145c-72.48705,29.61722 -113.74652,8.88517 -113.74652,-13.87683z"/>
    </g>
    <path stroke="null" fill="#4caf50" stroke-width="0" d="m644.19635,335.64014l8.9215,-33.93085l35.68578,-8.48267l-44.60728,42.41369l-223.03108,0l0,-254.47649l267.63836,0l0,212.06297" id="svg_8"/>
    <text stroke="#000" transform="matrix(22.1944 0 0 16.6389 -8478.28 -4708.81)" font-weight="bold" xml:space="preserve" text-anchor="start" font-family="Noto Sans JP" font-size="12" stroke-width="0" id="svg_7" y="299.88238" x="400.64704" fill="#ffffff">中</text>
    <path stroke="null" fill="#4caf50" stroke-width="0" d="m319.58311,513.34572l11.58637,-28.92831l43.53626,-6.64387l-55.12241,35.57219l-270.92458,-3.92155l5.6179,-218.13461l325.11064,4.70588l-4.68157,181.77809" id="svg_6"/>
    <text stroke="null" transform="matrix(22.1944 0 0 16.6389 -8478.28 -4708.81)" fill="#ffffff" stroke-width="0" x="387.05797" y="310.41116" id="svg_5" font-size="12" font-family="Noto Sans JP" text-anchor="start" xml:space="preserve" font-weight="bold">英</text>
   </g>
  </g>
 </g>

</svg>